<?xml version="1.0" encoding="iso-8859-1"?>
<!-- Generator: Adobe Illustrator 16.0.0, SVG Export Plug-In . SVG Version: 6.00 Build 0)  -->
<!DOCTYPE svg PUBLIC "-//W3C//DTD SVG 1.1//EN" "http://www.w3.org/Graphics/SVG/1.1/DTD/svg11.dtd">
<svg version="1.1" id="Capa_1" xmlns="http://www.w3.org/2000/svg" xmlns:xlink="http://www.w3.org/1999/xlink" x="0px" y="0px"
	 width="140.171px" height="140.172px" viewBox="0 0 140.171 140.172" style="enable-background:new 0 0 140.171 140.172;"
	 xml:space="preserve">
<g>
	<g id="_x36_2._Download">
		<g>
			<path d="M133.163,63.079H119.18c-0.011,0-0.021-0.003-0.034-0.003H98.12l32.138-32.138c5.479-5.471,3.638-9.911-4.103-9.911
				H98.12v-7.009c0-7.744-6.275-14.017-14.017-14.017H56.068c-7.741,0-14.017,6.273-14.017,14.017v7.009H14.017
				c-7.737,0-9.577,4.44-4.103,9.911l32.137,32.138H21.026c-0.011,0-0.021,0.003-0.035,0.003H7.008C3.14,63.079,0,66.216,0,70.084
				c0,3.871,3.14,7.008,7.008,7.008v49.061c0,7.74,6.276,14.017,14.018,14.017h98.12c7.741,0,14.017-6.276,14.017-14.017V77.093l0,0
				c3.874,0,7.009-3.138,7.009-7.008C140.171,66.216,137.037,63.079,133.163,63.079z M33.842,35.042h22.227V14.016h28.035v21.026
				h22.227L70.085,71.289L33.842,35.042z M119.146,126.153h-98.12V77.097l0,0V63.079h21.025l18.121,18.12
				c5.474,5.473,14.349,5.473,19.825,0l18.123-18.12h21.026V126.153z"/>
		</g>
	</g>
</g>
<g>
</g>
<g>
</g>
<g>
</g>
<g>
</g>
<g>
</g>
<g>
</g>
<g>
</g>
<g>
</g>
<g>
</g>
<g>
</g>
<g>
</g>
<g>
</g>
<g>
</g>
<g>
</g>
<g>
</g>
</svg>
